<?xml version="1.0" encoding="UTF-8"?>
<svg version="1.1" xmlns="http://www.w3.org/2000/svg" width="2709" height="2917">
<path d="M0 0 C82.83 0 165.66 0 251 0 C249.1214229 4.69644275 247.81285067 6.58589992 244.4375 10.125 C241.05401242 13.73356545 237.79286054 17.39705267 234.6875 21.25 C231.05239044 25.75367556 227.30442653 30.13988302 223.5 34.5 C219.76581042 38.78202781 216.07540724 43.08332047 212.5 47.5 C207.37137869 53.82873745 202.00725329 59.94705834 196.65966797 66.09033203 C190.5392154 73.13272391 184.43969663 80.19002801 178.5625 87.4375 C174.46020051 92.48933717 170.21298022 97.4030598 165.93994141 102.31005859 C161.95432319 106.88940288 158.01376361 111.50359938 154.10302734 116.14697266 C151.71527933 118.97976144 149.31532116 121.80083107 146.89453125 124.60546875 C141.42268589 130.94543122 136.0335667 137.30039361 131 144 C132.1240625 144.10183594 133.248125 144.20367188 134.40625 144.30859375 C139.34224704 144.93209953 143.82830927 146.39296292 148.5 148.0625 C149.80723022 148.52668335 149.80723022 148.52668335 151.14086914 149.00024414 C168.23874948 155.23935569 184.1091363 164.21671562 198 176 C198.68578125 176.55171875 199.3715625 177.1034375 200.078125 177.671875 C226.11724205 199.20027886 238.04541157 234.19852496 241.1875 266.75 C244.78790982 308.45117528 237.97558628 350.82579042 210.796875 383.91015625 C183.81336977 415.29314603 147.06420311 435.87214148 105.67993164 439.79931641 C69.59973955 442.50114003 34.43067988 433.8573151 6.1328125 410.6484375 C3.69217473 408.4896971 1.33887635 406.26800131 -1 404 C-1.67160156 403.401875 -2.34320312 402.80375 -3.03515625 402.1875 C-20.36871906 386.19789136 -30.91892813 359.79427948 -35 337 C-35 335.02 -35 333.04 -35 331 C-30.38 331 -25.76 331 -21 331 C-20.41605469 332.56234375 -20.41605469 332.56234375 -19.8203125 334.15625 C-7.91309517 365.06047817 13.03679318 385.43280546 43.1875 398.8125 C58.54587129 405.41410145 73.22908336 408.39764432 89.9375 408.375 C90.95688156 408.37418427 90.95688156 408.37418427 91.99685669 408.37335205 C120.23253785 408.26985944 146.52537123 399.71748836 168 381 C168.68191406 380.46117187 169.36382813 379.92234375 170.06640625 379.3671875 C190.24544089 363.0186154 199.29587481 335.90928795 202.58984375 310.95703125 C203.28683177 304.05840863 203.24425908 297.11475055 203.25 290.1875 C203.25067474 289.45523193 203.25134949 288.72296387 203.25204468 287.96850586 C203.20192306 253.64597286 194.15768181 220.84415044 169.73046875 195.66015625 C150.39456324 177.4145008 124.43518355 165.71289562 97.66015625 165.90234375 C96.50972084 165.90446617 96.50972084 165.90446617 95.33604431 165.90663147 C92.9114881 165.91218234 90.48702781 165.92472537 88.0625 165.9375 C86.40820447 165.94252136 84.75390747 165.94708315 83.09960938 165.95117188 C79.06636988 165.96213562 75.03320114 165.97936576 71 166 C72.73034951 163.01260246 74.46404242 160.27525535 76.75 157.6875 C77.27021729 157.09380615 77.79043457 156.5001123 78.32641602 155.88842773 C78.87869873 155.26524658 79.43098145 154.64206543 80 154 C81.17642548 152.6581166 82.35219622 151.31565894 83.52734375 149.97265625 C84.11370605 149.30379395 84.70006836 148.63493164 85.30419922 147.94580078 C87.75386752 145.13499508 90.16153371 142.28991497 92.5625 139.4375 C96.39058229 134.89383606 100.24908631 130.37791774 104.125 125.875 C107.61823856 121.81379124 111.06448707 117.72481029 114.4375 113.5625 C118.53979949 108.51066283 122.78701978 103.5969402 127.06005859 98.68994141 C131.04703759 94.10903362 134.98811681 89.49258493 138.90136719 84.84863281 C142.28481948 80.83615816 145.70100184 76.85289612 149.125 72.875 C152.61823856 68.81379124 156.06448707 64.72481029 159.4375 60.5625 C163.55308978 55.48910023 167.81834879 50.55715317 172.13256836 45.65258789 C175.24937787 42.09058961 178.25606748 38.45932296 181.20678711 34.75805664 C181.91943222 33.86486221 182.63207733 32.97166779 183.36631775 32.05140686 C183.90543289 31.3744426 184.44454803 30.69747833 185 30 C170.846069 29.95283521 156.69215055 29.91793092 142.53815651 29.89637566 C135.96307236 29.88602059 129.38804168 29.87201631 122.81298828 29.84912109 C116.44571801 29.82709286 110.07849857 29.8153695 103.71119308 29.81024551 C101.30442888 29.80660272 98.89766687 29.799493 96.49092484 29.78853989 C51.26656702 28.2426319 51.26656702 28.2426319 11.5625 46.75 C3.85956934 55.3051698 -1.05972946 65.71402639 -6 76 C-9.3 76 -12.6 76 -16 76 C-15.71992696 65.59528656 -14.39309789 55.91435863 -11.7421875 45.82617188 C-10.83508709 42.372029 -9.94894209 38.91260995 -9.0625 35.453125 C-7.39257508 28.94454907 -5.70655724 22.44030738 -4.01147461 15.93823242 C-2.6486536 10.63201331 -1.32871549 5.31486195 0 0 Z " fill="#103F70" transform="translate(970,1241)"/>
<path d="M0 0 C0 2.64 0 5.28 0 8 C-1.02738281 8.36351562 -2.05476563 8.72703125 -3.11328125 9.1015625 C-17.35418327 14.22539183 -31.15197414 19.60786757 -38.8125 33.625 C-50.74118272 60.47478412 -49.29969771 93.10595137 -49.54844093 121.95888329 C-49.58438097 126.09446218 -49.63833895 130.22812503 -49.73388672 134.36279297 C-49.82711166 138.41447098 -49.87540794 142.46445014 -49.89283371 146.51713943 C-49.90681406 148.04419817 -49.93619281 149.57120569 -49.98213577 151.09763718 C-50.2055479 158.88474293 -50.06250369 164.72544999 -44.62841797 170.80712891 C-43.11113339 172.23241829 -41.57071067 173.63381175 -40 175 C-38.99400029 176.0681062 -38.00164507 177.14944573 -37.03125 178.25 C-36.1959375 179.1575 -35.360625 180.065 -34.5 181 C-30.40775681 185.45281847 -26.35176546 189.9366042 -22.3125 194.4375 C-19.72384997 197.30600409 -17.11414854 200.1547665 -14.5 203 C-10.40833893 207.45335487 -6.35177054 211.93659854 -2.3125 216.4375 C0.27615003 219.30600409 2.88585146 222.1547665 5.5 225 C9.59166107 229.45335487 13.64822946 233.93659854 17.6875 238.4375 C20.27615187 241.30600613 22.88607553 244.15455909 25.5 247 C32.23079569 254.33624192 38.91817547 261.67917599 45.3125 269.3125 C50.55498072 275.5650677 56.05836069 281.54612649 61.62158203 287.51269531 C63.62549561 289.674906 65.59506286 291.86710669 67.5625 294.0625 C70.8505372 297.73106954 74.16673766 301.37254178 77.5 305 C81.59169207 309.45332617 85.64822977 313.93659888 89.6875 318.4375 C92.27615003 321.30600409 94.88585146 324.1547665 97.5 327 C101.59166107 331.45335487 105.64822946 335.93659854 109.6875 340.4375 C112.27615003 343.30600409 114.88585146 346.1547665 117.5 349 C121.59166107 353.45335487 125.64822946 357.93659854 129.6875 362.4375 C132.27615003 365.30600409 134.88585146 368.1547665 137.5 371 C140.85290579 374.64929525 144.18998331 378.31169568 147.5 382 C152.62319284 387.70661694 157.81119939 393.35315354 163 399 C168.916482 405.43876455 174.81724554 411.88948459 180.65234375 418.40234375 C182.42523361 420.36402721 184.20832195 422.31317841 186.00390625 424.25390625 C186.51179688 424.80369141 187.0196875 425.35347656 187.54296875 425.91992188 C188.54214951 427.00001316 189.54339604 428.07819773 190.546875 429.15429688 C194 432.88941059 194 432.88941059 194 434 C187.56480428 434.38432693 181.13260979 434.6445456 174.68847656 434.82397461 C172.50343351 434.89883793 170.31912736 435.00078549 168.13671875 435.1315918 C149.03330614 436.24683223 149.03330614 436.24683223 142.484375 430.74365234 C139.38700955 427.65201273 136.7287912 424.31781905 134.22314453 420.73483276 C132.71521006 418.59607152 131.02013693 416.67456224 129.25 414.75 C128.48429687 413.86054687 128.48429687 413.86054687 127.703125 412.953125 C125.50634095 410.43387724 123.25310381 407.96897004 121 405.5 C118.15475772 402.38092989 115.3280042 399.25244609 112.5625 396.0625 C109.13231424 392.11332633 105.58996482 388.26977695 102.04711914 384.42211914 C98.93400701 381.03537381 95.88747918 377.60093751 92.875 374.125 C90.45449925 371.38176582 87.97799358 368.69115432 85.5 366 C81.89987244 362.09018405 78.35582395 358.14133532 74.875 354.125 C72.45449925 351.38176582 69.97799358 348.69115432 67.5 346 C64.46111982 342.69971077 61.43843955 339.39050717 58.5 336 C55.13677362 332.12182987 51.66664329 328.34472189 48.19189453 324.56689453 C43.75776372 319.74415109 39.3748176 314.8765888 35 310 C33.50028872 308.33307353 32.00028679 306.66640851 30.5 305 C-32.5 235 -32.5 235 -34.7265625 232.5234375 C-36.3012727 230.77556329 -37.8796501 229.03098862 -39.4609375 227.2890625 C-40.25757813 226.40992188 -41.05421875 225.53078125 -41.875 224.625 C-42.59429688 223.83351563 -43.31359375 223.04203125 -44.0546875 222.2265625 C-45.81370284 220.21323169 -47.40982228 218.14671176 -49 216 C-49.07034595 235.89859296 -49.12311274 255.79716039 -49.15543652 275.69585228 C-49.17084959 284.93692579 -49.19183164 294.17792166 -49.22631836 303.41894531 C-49.25639218 311.48139714 -49.2756153 319.54379268 -49.28226548 327.60629904 C-49.28614756 331.86810064 -49.29515227 336.12974135 -49.31719017 340.39149094 C-50.04313463 379.76069044 -50.04313463 379.76069044 -32.3359375 413.890625 C-23.83055437 422.20866489 -11.00366782 426.97942907 0 431 C0 433.64 0 436.28 0 439 C-9.30224272 439.27285876 -18.49457793 438.51128422 -27.75720215 437.77484131 C-42.39756929 436.61498711 -57.00105313 435.64920857 -71.68530273 435.29125977 C-72.72243408 435.26475342 -73.75956543 435.23824707 -74.828125 435.2109375 C-75.7140332 435.19337402 -76.59994141 435.17581055 -77.51269531 435.15771484 C-80 435 -80 435 -85 434 C-85 292.43 -85 150.86 -85 5 C-81.93430914 3.97810305 -79.57529088 3.77853866 -76.35791016 3.62695312 C-74.61932236 3.54181458 -74.61932236 3.54181458 -72.84561157 3.45495605 C-71.58945038 3.39763306 -70.33328918 3.34031006 -69.0390625 3.28125 C-67.05691543 3.18525002 -65.07476845 3.08924816 -63.09262657 2.99314117 C-60.30788278 2.85916595 -57.52296347 2.72905445 -54.73803711 2.59893799 C-49.90764584 2.37276629 -45.07747503 2.14200149 -40.24740601 1.90905762 C-37.67965599 1.78560638 -35.11180909 1.66414796 -32.54385376 1.54504395 C-25.63663888 1.21575335 -18.75106009 0.78016998 -11.86019897 0.19958496 C-7.89471918 -0.0771266 -3.97341842 -0.06734607 0 0 Z " fill="#103F70" transform="translate(1326,1236)"/>
<path d="M0 0 C14.46784856 -0.42093956 28.71088958 0.29487332 43.125 1.4375 C43.99781616 1.50664612 44.87063232 1.57579224 45.76989746 1.64703369 C49.20324251 1.91962125 52.63657023 2.19242382 56.06982422 2.46615601 C62.45885611 2.97044782 68.84764155 3.39049595 75.25 3.6875 C75.99652832 3.72351318 76.74305664 3.75952637 77.51220703 3.79663086 C88.52641827 4.26282081 99.43257075 3.88292683 110.42578125 3.125 C111.78513951 3.03483522 113.14453064 2.94516497 114.50395203 2.85595703 C119.49138157 2.52774027 124.47828935 2.1919047 129.46508789 1.85424805 C133.69531684 1.56790149 137.92577724 1.28560178 142.15663719 1.00872803 C144.10568691 0.87964235 146.05435668 0.74485888 148.00300598 0.60986328 C156.68905449 0.04036851 165.29964417 -0.09696723 174 0 C174 2.64 174 5.28 174 8 C172.87078125 8.36798706 172.87078125 8.36798706 171.71875 8.7434082 C124.55569588 24.23667181 84.09930904 48.72901582 45 79 C44.24605957 79.58362305 43.49211914 80.16724609 42.71533203 80.76855469 C37.46801575 84.8343634 32.23204611 88.91456947 27 93 C26.06244873 93.73065674 26.06244873 93.73065674 25.10595703 94.47607422 C17.6562483 100.2833915 10.28953173 106.18319717 2.97143555 112.15551758 C-1.42058041 115.73417753 -5.84865754 119.26143015 -10.3125 122.75 C-15.27149653 126.62693327 -20.17297445 130.56423009 -25.03515625 134.5625 C-35.91851363 143.51008235 -46.88753255 152.33860964 -58 161 C-58.94746094 161.73863281 -59.89492187 162.47726562 -60.87109375 163.23828125 C-62.91254503 164.82749215 -64.95524463 166.41504411 -67 168 C-65.67143806 170.92643237 -64.20435823 173.0700763 -61.98828125 175.390625 C-61.39893799 176.01348389 -60.80959473 176.63634277 -60.20239258 177.27807617 C-59.57872803 177.92881104 -58.95506348 178.5795459 -58.3125 179.25 C-57.03035621 180.60462334 -55.74909479 181.96008243 -54.46875 183.31640625 C-53.8603125 183.95980957 -53.251875 184.60321289 -52.625 185.26611328 C-50.26738625 187.78170415 -48.01103985 190.3763492 -45.76171875 192.98828125 C-43.4252886 195.6562669 -41.02583749 198.26514554 -38.625 200.875 C-33.71200435 206.2163038 -28.84620746 211.59795513 -24 217 C-22.50028872 218.66692647 -21.00028679 220.33359149 -19.5 222 C-16.5 225.33333333 -13.5 228.66666667 -10.5 232 C-9.75492188 232.82757812 -9.00984375 233.65515625 -8.2421875 234.5078125 C-6.76707382 236.14739879 -5.29308348 237.78799655 -3.8203125 239.4296875 C0.30097768 244.0203061 4.44873788 248.58447107 8.625 253.125 C12.18253099 256.99367822 15.68289575 260.90334125 19.125 264.875 C21.54550075 267.61823418 24.02200642 270.30884568 26.5 273 C29.53888018 276.30028923 32.56156045 279.60949283 35.5 283 C38.86322638 286.87817013 42.33335671 290.65527811 45.80810547 294.43310547 C50.24223628 299.25584891 54.6251824 304.1234112 59 309 C60.49971128 310.66692647 61.99971321 312.33359149 63.5 314 C66.5 317.33333333 69.5 320.66666667 72.5 324 C73.24507812 324.82757812 73.99015625 325.65515625 74.7578125 326.5078125 C76.23292618 328.14739879 77.70691652 329.78799655 79.1796875 331.4296875 C83.76812308 336.54064956 88.39401005 341.61467215 93.04541016 346.66821289 C95.65782655 349.51330482 98.22705372 352.38791877 100.75 355.3125 C103.45409094 358.43508121 106.31604374 361.33704518 109.26171875 364.23046875 C111.02957316 366.03010481 112.67254542 367.89601912 114.3125 369.8125 C120.3350534 376.78029721 126.9100729 383.21627514 133.91796875 389.1875 C135.38758648 390.46686703 136.82520678 391.78344239 138.23828125 393.125 C156.7207493 410.60142391 178.41769086 426.78252604 204 431 C204 433.64 204 436.28 204 439 C196.63181726 439.10761383 189.39571589 438.82092834 182.05859375 438.16015625 C181.05143814 438.07374374 180.04428253 437.98733124 179.00660706 437.89830017 C175.81650444 437.62410772 172.6269815 437.34381794 169.4375 437.0625 C165.24898933 436.69577591 161.0601231 436.33340048 156.87109375 435.97265625 C155.85810715 435.88307144 154.84512054 435.79348663 153.80143738 435.70118713 C149.08167668 435.29471211 144.37890672 434.94872059 139.64379883 434.79077148 C138.82045547 434.76079575 137.99711212 434.73082001 137.14881897 434.69993591 C135.63701477 434.65176792 134.12456845 434.61963319 132.61204529 434.6075592 C127.75431145 434.45277372 125.29802901 433.29002555 121.8125 429.9375 C120.50059653 428.32421329 119.22652778 426.67911117 118 425 C116.90699828 423.74022571 115.80307883 422.48982576 114.6875 421.25 C114.13191406 420.60289062 113.57632812 419.95578125 113.00390625 419.2890625 C110.43130036 416.35037429 107.78057349 413.48863478 105.125 410.625 C100.80229839 405.96078625 96.52183148 401.2630561 92.27734375 396.52734375 C89.70190225 393.66917797 87.10314236 390.83289739 84.5 388 C80.40830793 383.54667383 76.35177023 379.06340112 72.3125 374.5625 C69.72384997 371.69399591 67.11414854 368.8452335 64.5 366 C60.40833893 361.54664513 56.35177054 357.06340146 52.3125 352.5625 C49.72384997 349.69399591 47.11414854 346.8452335 44.5 344 C40.40833893 339.54664513 36.35177054 335.06340146 32.3125 330.5625 C29.72384997 327.69399591 27.11414854 324.8452335 24.5 322 C20.40833893 317.54664513 16.35177054 313.06340146 12.3125 308.5625 C9.72384997 305.69399591 7.11414854 302.8452335 4.5 300 C0.40833893 295.54664513 -3.64822946 291.06340146 -7.6875 286.5625 C-10.27615036 283.69399555 -12.88589108 280.84527019 -15.5 278 C-21.10303176 271.90012856 -26.64212914 265.74438837 -32.171875 259.578125 C-36.72235371 254.51127991 -41.30605967 249.47637512 -45.91357422 244.46142578 C-49.53228476 240.51936798 -53.11345702 236.54500503 -56.6875 232.5625 C-59.27615003 229.69399591 -61.88585146 226.8452335 -64.5 224 C-68.59166107 219.54664513 -72.64822946 215.06340146 -76.6875 210.5625 C-79.27615003 207.69399591 -81.88585146 204.8452335 -84.5 202 C-88.58668782 197.55205801 -92.63915696 193.07504081 -96.671875 188.578125 C-98.38214974 186.6841966 -100.09974229 184.7991359 -101.828125 182.921875 C-102.55612305 182.13103516 -102.55612305 182.13103516 -103.29882812 181.32421875 C-104.67188157 179.8347422 -106.04682182 178.34700563 -107.421875 176.859375 C-108.27265625 175.91578125 -109.1234375 174.9721875 -110 174 C-110.48662109 173.47599609 -110.97324219 172.95199219 -111.47460938 172.41210938 C-112.890625 170.828125 -112.890625 170.828125 -115 168 C-113.68306959 164.04920878 -111.14616434 162.53755561 -107.9375 160.125 C-106.65391413 159.13936567 -105.37140344 158.15232992 -104.08984375 157.1640625 C-103.41808105 156.6474707 -102.74631836 156.13087891 -102.05419922 155.59863281 C-98.65721946 152.95501224 -95.33068826 150.2263246 -92 147.5 C-86.47733837 142.99151553 -80.9081364 138.55155856 -75.2890625 134.1640625 C-70.81563292 130.66223753 -66.40132798 127.09188836 -62 123.5 C-57.03762183 119.4502431 -52.048419 115.44200507 -47 111.5 C-41.16955562 106.94653333 -35.41641816 102.30343412 -29.68408203 97.62719727 C-26.1010011 94.7044332 -22.50315368 91.80433619 -18.875 88.9375 C8.84901293 67.74241262 8.84901293 67.74241262 25 38 C25.53144777 31.62262673 24.73285392 27.27491608 21 22 C15.29017263 15.49051622 7.62069063 11.82196222 0 8 C0 5.36 0 2.72 0 0 Z " fill="#2BA954" transform="translate(1431,1236)"/>
<path d="M0 0 C1 1 1 1 1.02172852 4.18017578 C0.97922332 5.60204971 0.93117722 7.02376408 0.87890625 8.4453125 C0.85529526 9.20738007 0.83168427 9.96944763 0.80735779 10.75460815 C0.73057033 13.21158798 0.64695752 15.6682728 0.5625 18.125 C0.45650998 21.31500954 0.35382869 24.50510725 0.25390625 27.6953125 C0.22894073 28.48093063 0.20397522 29.26654877 0.17825317 30.07597351 C-0.00672989 36.2726655 -0.03032615 42.4564102 0.02905273 48.65600586 C-0.01846665 54.12552672 -0.48599184 59.55702076 -1 65 C-2.65 65 -4.3 65 -6 65 C-6.18062988 64.42668945 -6.36125977 63.85337891 -6.54736328 63.26269531 C-13.35829035 41.81021119 -20.32456425 23.58477065 -41 12 C-45.58157816 9.94306755 -50.16775152 8.35782189 -55 7 C-55.85464844 6.75507812 -56.70929688 6.51015625 -57.58984375 6.2578125 C-80.03326683 1.08128838 -104.69704326 6.12294153 -124.08984375 18.00390625 C-143.81534196 31.53374462 -153.41868953 52.1529452 -158 75 C-163.27505563 105.49780063 -160.15790125 139.10298864 -142.0625 165 C-140.73949136 166.69150621 -139.38594093 168.35966074 -138 170 C-137.33613281 170.78761719 -136.67226562 171.57523438 -135.98828125 172.38671875 C-123.11609234 186.40098727 -103.29469214 193.15564487 -84.66308594 194.12109375 C-56.06291876 195.21814658 -30.95159547 187.88789041 -9 169 C-7.81414426 167.65936389 -6.65877624 166.28982771 -5.5625 164.875 C-4.716875 163.92625 -3.87125 162.9775 -3 162 C0.16015625 161.8203125 0.16015625 161.8203125 3 162 C2.21298501 166.50082628 1.41955472 171.00049914 0.625 175.5 C0.40328125 176.7684375 0.1815625 178.036875 -0.046875 179.34375 C-0.48331312 181.80834172 -0.93462736 184.27035393 -1.40209961 186.72924805 C-1.75570925 188.66363283 -2.06815266 190.60758354 -2.28735352 192.56176758 C-2.58984375 194.67578125 -2.58984375 194.67578125 -4 198 C-6.86191303 199.92521448 -9.88320262 200.77597994 -13.1875 201.6875 C-14.11933105 201.96875732 -15.05116211 202.25001465 -16.01123047 202.53979492 C-53.38009286 213.49016061 -95.94236609 218.39667007 -131.4765625 199.0390625 C-136.2302237 196.3354018 -140.70927116 193.3949451 -145 190 C-145.75539063 189.40832031 -146.51078125 188.81664062 -147.2890625 188.20703125 C-168.1820857 170.79617858 -177.04690907 143.83135943 -179.80371094 117.625 C-182.31260729 84.07319203 -178.51017963 48.60293957 -156 22 C-141.86150972 6.37324758 -124.40282946 -3.97236867 -104 -9 C-103.35353516 -9.16371094 -102.70707031 -9.32742188 -102.04101562 -9.49609375 C-69.94055741 -17.22575632 -30.44452618 -12.22575461 0 0 Z " fill="#2BA954" transform="translate(1771,1452)"/>
<path d="M0 0 C0.495 0.99 0.495 0.99 1 2 C-0.09041701 3.92034551 -1.27714382 5.78615284 -2.5 7.625 C-23.1350661 40.04763744 -25.24738914 82.0776955 -17.42700195 118.91381836 C-13.30172584 137.11453003 -5.92204005 153.2924256 7 167 C4 168 4 168 1.72265625 167.171875 C-18.22657913 156.50884757 -30.26453854 137.85814509 -36.875 116.625 C-45.59796178 87.25980745 -43.45086037 55.25103602 -29 28 C-21.74748729 16.02807674 -12.09030513 6.94158203 0 0 Z " fill="#2BA954" transform="translate(1599,1472)"/>
</svg>
